<svg xmlns="http://www.w3.org/2000/svg" width="1080" height="360" viewBox="0 0 1080 360" role="img" aria-label="Artwork frame light editor diagnostic contact sheet">
  <rect width="1080" height="360" fill="#111827"/>
  <text x="32" y="38" fill="#e5e7eb" font-family="Arial, sans-serif" font-size="20" font-weight="700">Canvas-lit artwork frame light editor diagnostic</text>
  <text x="32" y="64" fill="#9ca3af" font-family="Arial, sans-serif" font-size="13">Flat frame target, centered guide, sun handle, and tether behavior.</text>

  <g transform="translate(36 96)">
    <rect x="0" y="0" width="300" height="210" rx="10" fill="#1f2937" stroke="#374151"/>
    <rect x="70" y="42" width="160" height="126" rx="4" fill="#637381"/>
    <path d="M70 42h160v126H70z M86 58v94h128V58z" fill="#7f8b96" fill-rule="evenodd"/>
    <circle cx="150" cy="105" r="63" fill="rgba(14,165,233,0.08)" stroke="#e0f2fe" stroke-width="1.5" stroke-dasharray="5 5"/>
    <circle cx="150" cy="105" r="14" fill="#f59e0b" stroke="#92400e"/>
    <path d="M150 96v-8M150 122v-8M141 105h-8M167 105h-8M144 99l-6-6M162 117l-6-6M144 111l-6 6M162 93l-6 6" stroke="#7c2d12" stroke-width="2" stroke-linecap="round"/>
    <text x="24" y="238" fill="#f9fafb" font-family="Arial, sans-serif" font-size="14" font-weight="700">Overhead</text>
    <text x="24" y="258" fill="#9ca3af" font-family="Arial, sans-serif" font-size="12">Sun centered, no tether.</text>
  </g>

  <g transform="translate(390 96)">
    <rect x="0" y="0" width="300" height="210" rx="10" fill="#1f2937" stroke="#374151"/>
    <rect x="70" y="42" width="160" height="126" rx="4" fill="#637381"/>
    <path d="M70 42h160v126H70z M86 58v94h128V58z" fill="#7f8b96" fill-rule="evenodd"/>
    <circle cx="150" cy="105" r="63" fill="rgba(14,165,233,0.08)" stroke="#e0f2fe" stroke-width="1.5" stroke-dasharray="5 5"/>
    <line x1="150" y1="105" x2="194.5" y2="60.5" stroke="#fbbf24" stroke-width="2.4" stroke-linecap="round"/>
    <circle cx="194.5" cy="60.5" r="14" fill="#f59e0b" stroke="#92400e"/>
    <path d="M194.5 51.5v-8M194.5 77.5v-8M185.5 60.5h-8M211.5 60.5h-8M188.5 54.5l-6-6M206.5 72.5l-6-6M188.5 66.5l-6 6M206.5 48.5l-6 6" stroke="#7c2d12" stroke-width="2" stroke-linecap="round"/>
    <text x="24" y="238" fill="#f9fafb" font-family="Arial, sans-serif" font-size="14" font-weight="700">45 degree light</text>
    <text x="24" y="258" fill="#9ca3af" font-family="Arial, sans-serif" font-size="12">Sun halfway to the radius edge, tether visible.</text>
  </g>

  <g transform="translate(744 96)">
    <rect x="0" y="0" width="300" height="210" rx="10" fill="#1f2937" stroke="#374151"/>
    <rect x="70" y="42" width="160" height="126" rx="4" fill="#637381"/>
    <path d="M70 42h160v126H70z M86 58v94h128V58z" fill="#7f8b96" fill-rule="evenodd"/>
    <circle cx="150" cy="105" r="63" fill="rgba(14,165,233,0.08)" stroke="#e0f2fe" stroke-width="1.5" stroke-dasharray="5 5"/>
    <line x1="150" y1="105" x2="213" y2="105" stroke="#fbbf24" stroke-width="2.4" stroke-linecap="round"/>
    <circle cx="213" cy="105" r="14" fill="#f59e0b" stroke="#92400e"/>
    <path d="M213 96v-8M213 122v-8M204 105h-8M230 105h-8M207 99l-6-6M225 117l-6-6M207 111l-6 6M225 93l-6 6" stroke="#7c2d12" stroke-width="2" stroke-linecap="round"/>
    <text x="24" y="238" fill="#f9fafb" font-family="Arial, sans-serif" font-size="14" font-weight="700">Grazing light</text>
    <text x="24" y="258" fill="#9ca3af" font-family="Arial, sans-serif" font-size="12">Sun clamped at the radius edge.</text>
  </g>
</svg>
